# File created by Blade
# Date/Time:  Thu Sep 25 18:58:07 2014
# Frame Rate: 120.000 fps
#------------------------------------------------------
:FULLY-SPECIFIED
:DEGREES
2831
root 1.444564 32.971346 0.908671 9.056474 0.981032 0.323669
Spine -7.268642 4.057894 -2.201687
Head 6.749213 32.099931 22.305676
LeftShoulder -20.788024 19.118284 23.433254
LeftArm 10.292952 -32.326867 -43.361511
LeftForeArm 15.358541 -0.000000 16.142666
LeftHand -35.932545 -0.000000 3.724864
LeftHandThumb1 -26.253704 0.000000 33.147579
RightShoulder -26.006185 10.596393 -36.008653
RightArm -27.120267 13.840076 34.258766
RightForeArm -32.517236 -0.000000 16.972762
RightHand -17.835307 -0.000000 6.560560
RightHandThumb1 -24.326973 -0.000000 -32.862282
LeftUpLeg -4.499723 10.362815 3.132954
LeftLeg -2.042630 -0.000000 0.000000
LeftFoot -4.751847 -3.768739 -18.679738
LeftToeBase 9.283634 -0.000000 -0.000000
RightUpLeg -4.720429 -10.723244 -6.248120
RightLeg 0.554520 -0.000000 -0.000000
RightFoot -3.763596 -1.415571 3.710537
RightToeBase -2.834852 -0.000000 0.000000
2832
root 1.443860 32.970176 0.906373 8.990159 0.994631 0.312460
Spine -7.256345 4.087159 -2.159298
Head 6.305327 32.229401 21.908951
LeftShoulder -20.579079 19.070648 23.456500
LeftArm 10.484737 -32.542800 -43.470297
LeftForeArm 14.074378 -0.000000 16.387459
LeftHand -35.310917 -0.000000 3.198441
LeftHandThumb1 -26.253704 0.000000 33.147579
RightShoulder -25.872067 10.690394 -35.946627
RightArm -26.799215 13.801754 34.302740
RightForeArm -32.239239 -0.000000 16.915393
RightHand -17.737043 0.000000 7.040947
RightHandThumb1 -24.326973 -0.000000 -32.862282
LeftUpLeg -4.493572 10.524042 3.134822
LeftLeg -1.937475 -0.000000 0.000000
LeftFoot -4.766989 -3.924843 -18.606856
LeftToeBase 9.190318 -0.000000 -0.000000
RightUpLeg -4.662889 -10.737110 -6.242823
RightLeg 0.570171 -0.000000 -0.000000
RightFoot -3.778611 -1.422396 3.707851
RightToeBase -2.821478 -0.000000 0.000000
2833
root 1.446554 32.968385 0.903857 8.916276 1.013622 0.331198
Spine -7.223995 4.116429 -2.154451
Head 5.837821 32.322617 21.495430
LeftShoulder -20.401874 19.125795 23.417668
LeftArm 10.817527 -32.864786 -43.623813
LeftForeArm 12.918615 0.000000 16.615128
LeftHand -34.603998 -0.000000 2.417237
LeftHandThumb1 -26.253704 0.000000 33.147579
RightShoulder -25.738268 10.811433 -35.897158
RightArm -26.558700 13.766366 34.346172
RightForeArm -32.067830 -0.000000 16.922474
RightHand -17.328806 -0.000000 7.505601
RightHandThumb1 -24.326973 -0.000000 -32.862282
LeftUpLeg -4.449800 10.527023 3.122332
LeftLeg -1.889510 -0.000000 0.000000
LeftFoot -4.794666 -3.949774 -18.574427
LeftToeBase 9.160824 -0.000000 -0.000000
RightUpLeg -4.600455 -10.727829 -6.281113
RightLeg 0.609582 -0.000000 -0.000000
RightFoot -3.823567 -1.482996 3.646091
RightToeBase -2.815138 -0.000000 0.000000
2834
root 1.449009 32.967025 0.900165 8.863753 1.030267 0.336555
Spine -7.224477 4.163370 -2.127171
Head 5.304380 32.256836 20.991323
LeftShoulder -20.153489 19.046054 23.402821
LeftArm 10.984963 -32.957527 -43.636176
LeftForeArm 11.514966 -0.000000 16.843688
LeftHand -33.964646 -0.000000 1.765382
LeftHandThumb1 -26.253704 0.000000 33.147579
RightShoulder -25.599894 10.909628 -35.893030
RightArm -26.300452 13.683044 34.483269
RightForeArm -31.881858 0.000000 16.896035
RightHand -16.998610 -0.000000 7.562727
RightHandThumb1 -24.326973 -0.000000 -32.862282
LeftUpLeg -4.416629 10.507917 3.122986
LeftLeg -1.863522 -0.000000 0.000000
LeftFoot -4.829830 -3.955536 -18.590484
LeftToeBase 9.284775 -0.000000 -0.000000
RightUpLeg -4.564133 -10.716185 -6.295994
RightLeg 0.631112 -0.000000 -0.000000
RightFoot -3.847744 -1.471049 3.697586
RightToeBase -2.838705 -0.000000 0.000000
2835
root 1.456631 32.964974 0.900677 8.812794 1.028628 0.338473
Spine -7.249503 4.213876 -2.068022
Head 4.845161 32.175855 20.513856
LeftShoulder -19.957896 19.040418 23.339246
LeftArm 11.266893 -33.157347 -43.757531
LeftForeArm 10.301626 -0.000000 17.077251
LeftHand -33.149127 0.000000 1.169172
LeftHandThumb1 -26.253704 0.000000 33.147579
RightShoulder -25.450883 11.008085 -35.870541
RightArm -25.997179 13.492165 34.622025
RightForeArm -31.772501 -0.000000 16.977262
RightHand -16.994935 -0.000000 7.921274
RightHandThumb1 -24.326973 -0.000000 -32.862282
LeftUpLeg -4.366109 10.508298 3.114611
LeftLeg -1.858185 -0.000000 0.000000
LeftFoot -4.859667 -3.947743 -18.550155
LeftToeBase 9.220057 -0.000000 -0.000000
RightUpLeg -4.523213 -10.711564 -6.322783
RightLeg 0.655708 -0.000000 -0.000000
RightFoot -3.874501 -1.453645 3.699519
RightToeBase -2.803956 -0.000000 0.000000
2836
root 1.454705 32.963944 0.888872 8.788551 1.080986 0.321649
Spine -7.232271 4.126300 -1.982744
Head 4.261894 32.145326 19.908505
LeftShoulder -19.874731 18.986751 23.211008
LeftArm 11.528954 -33.205293 -43.799882
LeftForeArm 9.063255 0.000000 17.345114
LeftHand -32.517889 -0.000000 0.863718
LeftHandThumb1 -26.253704 0.000000 33.147579
RightShoulder -25.249910 11.207003 -35.868067
RightArm -25.750061 13.435556 34.794496
RightForeArm -31.625795 -0.000000 17.096700
RightHand -17.098752 -0.000000 7.910991
RightHandThumb1 -24.326973 -0.000000 -32.862282
LeftUpLeg -4.404900 10.451918 3.143435
LeftLeg -1.787826 -0.000000 0.000000
LeftFoot -4.911449 -3.933193 -18.553352
LeftToeBase 8.850164 -0.000000 -0.000000
RightUpLeg -4.531137 -10.703233 -6.298072
RightLeg 0.702995 -0.000000 -0.000000
RightFoot -3.897355 -1.531308 3.683730
RightToeBase -2.810473 -0.000000 0.000000
2837
root 1.454583 32.962815 0.881858 8.718013 1.097912 0.341668
Spine -7.212948 4.187312 -2.034891
Head 3.769073 31.912896 19.647032
LeftShoulder -19.579040 18.924395 23.310383
LeftArm 11.736632 -33.413332 -44.040024
LeftForeArm 8.066004 0.000000 17.807029
LeftHand -32.108350 -0.000000 0.278110
LeftHandThumb1 -26.253704 0.000000 33.147579
RightShoulder -25.060990 11.242426 -35.704619
RightArm -25.466937 13.287816 34.979264
RightForeArm -31.487558 -0.000000 17.172589
RightHand -16.932307 -0.000000 7.801202
RightHandThumb1 -24.326973 -0.000000 -32.862282
LeftUpLeg -4.366988 10.419797 3.137367
LeftLeg -1.746803 -0.000000 0.000000
LeftFoot -4.917619 -3.948537 -18.573863
LeftToeBase 9.187935 -0.000000 -0.000000
RightUpLeg -4.485972 -10.667688 -6.328218
RightLeg 0.745184 -0.000000 -0.000000
RightFoot -3.941021 -1.582564 3.666072
RightToeBase -2.808426 -0.000000 0.000000
2838
root 1.458891 32.960800 0.880077 8.623480 1.093724 0.346750
Spine -7.157146 4.259501 -2.026737
Head 3.200032 31.595960 19.216193
LeftShoulder -19.372308 18.881952 23.305885
LeftArm 12.026710 -33.463411 -44.257509
LeftForeArm 7.215564 -0.000000 18.277937
LeftHand -31.732141 0.000000 -0.092667
LeftHandThumb1 -26.253704 0.000000 33.147579
RightShoulder -24.938602 11.390528 -35.668609
RightArm -25.170359 13.244832 35.143423
RightForeArm -31.554029 -0.000000 17.207526
RightHand -16.844026 -0.000000 7.621880
RightHandThumb1 -24.326973 -0.000000 -32.862282
LeftUpLeg -4.279350 10.408284 3.140900
LeftLeg -1.733345 -0.000000 0.000000
LeftFoot -4.956998 -3.942573 -18.569947
LeftToeBase 9.224146 -0.000000 -0.000000
RightUpLeg -4.420709 -10.628166 -6.362409
RightLeg 0.805931 -0.000000 -0.000000
RightFoot -3.990422 -1.596414 3.670924
RightToeBase -2.799598 -0.000000 0.000000
2839
root 1.466128 32.958924 0.880124 8.541411 1.101029 0.346192
Spine -7.132324 4.324473 -1.973617
Head 2.657121 31.281680 18.747267
LeftShoulder -19.144504 18.838162 23.233407
LeftArm 12.299492 -33.467035 -44.464859
LeftForeArm 6.362588 -0.000000 18.852743
LeftHand -31.445032 0.000000 -0.071240
LeftHandThumb1 -26.253704 0.000000 33.147579
RightShoulder -24.765169 11.462543 -35.623129
RightArm -24.880282 13.425556 35.285269
RightForeArm -31.693843 -0.000000 17.293965
RightHand -16.879373 0.000000 7.530086
RightHandThumb1 -24.326973 -0.000000 -32.862282
LeftUpLeg -4.199287 10.370075 3.144879
LeftLeg -1.715892 -0.000000 0.000000
LeftFoot -5.011372 -3.948811 -18.555545
LeftToeBase 9.398393 -0.000000 -0.000000
RightUpLeg -4.342645 -10.628232 -6.392075
RightLeg 0.823639 -0.000000 -0.000000
RightFoot -4.008579 -1.584314 3.681825
RightToeBase -2.775964 -0.000000 0.000000
2840
root 1.468290 32.957587 0.877098 8.451531 1.117881 0.337490
Spine -7.078832 4.333445 -1.937895
Head 2.126552 30.949725 18.368595
LeftShoulder -18.956610 18.809719 23.184418
LeftArm 12.538234 -33.467389 -44.727581
LeftForeArm 5.639930 0.000000 19.541592
LeftHand -31.207025 -0.000000 -0.002570
LeftHandThumb1 -26.253704 0.000000 33.147579
RightShoulder -24.529329 11.528985 -35.491680
RightArm -24.621247 13.308187 35.542482
RightForeArm -31.424275 -0.000000 17.501891
RightHand -16.891571 -0.000000 7.135657
RightHandThumb1 -24.326973 -0.000000 -32.862282
LeftUpLeg -4.126576 10.339108 3.168859
LeftLeg -1.693424 -0.000000 0.000000
LeftFoot -5.026627 -3.950770 -18.542186
LeftToeBase 9.347938 -0.000000 -0.000000
RightUpLeg -4.270318 -10.606488 -6.402672
RightLeg 0.860022 -0.000000 -0.000000
RightFoot -4.040680 -1.609368 3.727276
RightToeBase -2.753618 -0.000000 0.000000
2841
root 1.472472 32.956370 0.870870 8.365736 1.132200 0.347194
Spine -7.014851 4.358932 -1.921848
Head 1.546409 30.545161 17.965371
LeftShoulder -18.724828 18.792628 23.140520
LeftArm 12.763727 -33.619221 -45.108153
LeftForeArm 5.250989 0.000000 20.376316
LeftHand -30.779027 -0.000000 -0.017115
LeftHandThumb1 -26.253704 0.000000 33.147579
RightShoulder -24.288515 11.586692 -35.363077
RightArm -24.409732 13.447019 35.756320
RightForeArm -31.367323 0.000000 17.731950
RightHand -16.797148 -0.000000 6.830152
RightHandThumb1 -24.326973 -0.000000 -32.862282
LeftUpLeg -4.022927 10.121521 3.189450
LeftLeg -1.751043 -0.000000 0.000000
LeftFoot -5.062918 -3.746559 -18.626649
LeftToeBase 9.282090 -0.000000 -0.000000
RightUpLeg -4.208845 -10.578162 -6.433974
RightLeg 0.897125 -0.000000 -0.000000
RightFoot -4.062934 -1.644591 3.696303
RightToeBase -2.805376 -0.000000 0.000000
2842
root 1.473518 32.956251 0.862296 8.275468 1.143777 0.335992
Spine -6.926558 4.392361 -1.873239
Head 0.928914 30.131692 17.527650
LeftShoulder -18.486934 18.792061 23.039409
LeftArm 12.970473 -33.737809 -45.484156
LeftForeArm 4.904669 -0.000000 21.342028
LeftHand -30.620967 -0.000000 0.263434
LeftHandThumb1 -26.253704 0.000000 33.147579
RightShoulder -24.048088 11.601094 -35.195042
RightArm -24.179880 13.524344 36.030222
RightForeArm -31.233539 -0.000000 18.072900
RightHand -16.679919 -0.000000 6.542761
RightHandThumb1 -24.326973 -0.000000 -32.862282
LeftUpLeg -4.013505 10.254805 3.192497
LeftLeg -1.625833 -0.000000 0.000000
LeftFoot -5.100510 -3.861206 -18.570202
LeftToeBase 9.266860 -0.000000 -0.000000
RightUpLeg -4.151350 -10.538205 -6.440883
RightLeg 0.952419 -0.000000 -0.000000
RightFoot -4.085644 -1.732503 3.626432
RightToeBase -2.761762 -0.000000 0.000000
2843
root 1.475828 32.955161 0.856586 8.169525 1.136002 0.335103
Spine -6.821594 4.479951 -1.851284
Head 0.299916 29.585155 17.088610
LeftShoulder -18.193904 18.795168 22.948635
LeftArm 13.133654 -33.898938 -45.893799
LeftForeArm 4.621469 -0.000000 22.446811
LeftHand -30.524975 -0.000000 0.672864
LeftHandThumb1 -26.253704 0.000000 33.147579
RightShoulder -23.884096 11.626219 -35.061682
RightArm -23.919371 13.512351 36.367309
RightForeArm -31.070543 0.000000 18.382474
RightHand -16.654850 -0.000000 6.122189
RightHandThumb1 -24.326973 -0.000000 -32.862282
LeftUpLeg -3.932339 10.259626 3.204255
LeftLeg -1.589641 -0.000000 0.000000
LeftFoot -5.128761 -3.864862 -18.551089
LeftToeBase 9.272171 -0.000000 -0.000000
RightUpLeg -4.076889 -10.497095 -6.461520
RightLeg 0.986082 -0.000000 -0.000000
RightFoot -4.102577 -1.717934 3.676995
RightToeBase -2.764326 -0.000000 0.000000
